<?xml version="1.0" standalone="no"?><!DOCTYPE svg PUBLIC "-//W3C//DTD SVG 1.1//EN" "http://www.w3.org/Graphics/SVG/1.1/DTD/svg11.dtd"><svg t="1734538211048" class="icon" viewBox="0 0 1024 1024" version="1.1" xmlns="http://www.w3.org/2000/svg" p-id="1444" data-darkreader-inline-fill="" xmlns:xlink="http://www.w3.org/1999/xlink" width="200" height="200"><path d="M478.4 899.2H65.8V581.5c0-117 24.3-209.3 73-277 48.7-67.7 132.2-127.4 250.4-179.3L478.4 294c-72.7 34.1-123 68.1-150.8 102-27.8 33.8-43.3 73.8-46.5 120h197.3v383.2z m480.9 0H546.7V581.5c0-117 24.3-209.3 73-277 48.7-67.7 132.2-127.4 250.4-179.3L959.3 294c-72.7 34.1-123 68.1-150.8 102-27.8 33.8-43.3 73.8-46.5 120h197.3v383.2z" fill="#8a8a8a" p-id="1445" data-darkreader-inline-fill="" style="--darkreader-inline-fill: #5a6265;"></path></svg>